<?xml version="1.0" encoding="UTF-8" standalone="no"?>
<!DOCTYPE svg PUBLIC "-//W3C//DTD SVG 1.1//EN"
 "http://www.w3.org/Graphics/SVG/1.1/DTD/svg11.dtd">
<!-- Generated by graphviz version 2.50.0 (20211204.2007)
 -->
<!-- Pages: 1 -->
<svg width="514pt" height="476pt"
 viewBox="0.00 0.00 513.54 476.00" xmlns="http://www.w3.org/2000/svg" xmlns:xlink="http://www.w3.org/1999/xlink">
<g id="graph0" class="graph" transform="scale(1 1) rotate(0) translate(4 472)">
<polygon fill="white" stroke="transparent" points="-4,4 -4,-472 509.54,-472 509.54,4 -4,4"/>
<!-- [root] aws_eip.ip (expand) -->
<g id="node1" class="node">
<title>[root] aws_eip.ip (expand)</title>
<polygon fill="none" stroke="black" points="290.27,-252 215.27,-252 215.27,-216 290.27,-216 290.27,-252"/>
<text text-anchor="middle" x="252.77" y="-230.3" font-family="Times,serif" font-size="14.00">aws_eip.ip</text>
</g>
<!-- [root] aws_instance.myec2 (expand) -->
<g id="node2" class="node">
<title>[root] aws_instance.myec2 (expand)</title>
<polygon fill="none" stroke="black" points="317.27,-180 188.27,-180 188.27,-144 317.27,-144 317.27,-180"/>
<text text-anchor="middle" x="252.77" y="-158.3" font-family="Times,serif" font-size="14.00">aws_instance.myec2</text>
</g>
<!-- [root] aws_eip.ip (expand)&#45;&gt;[root] aws_instance.myec2 (expand) -->
<g id="edge1" class="edge">
<title>[root] aws_eip.ip (expand)&#45;&gt;[root] aws_instance.myec2 (expand)</title>
<path fill="none" stroke="black" d="M252.77,-215.7C252.77,-207.98 252.77,-198.71 252.77,-190.11"/>
<polygon fill="black" stroke="black" points="256.27,-190.1 252.77,-180.1 249.27,-190.1 256.27,-190.1"/>
</g>
<!-- [root] data.aws_ami.ubuntu&#45;latest (expand) -->
<g id="node4" class="node">
<title>[root] data.aws_ami.ubuntu&#45;latest (expand)</title>
<polygon fill="none" stroke="black" points="335.77,-108 169.77,-108 169.77,-72 335.77,-72 335.77,-108"/>
<text text-anchor="middle" x="252.77" y="-86.3" font-family="Times,serif" font-size="14.00">data.aws_ami.ubuntu&#45;latest</text>
</g>
<!-- [root] aws_instance.myec2 (expand)&#45;&gt;[root] data.aws_ami.ubuntu&#45;latest (expand) -->
<g id="edge2" class="edge">
<title>[root] aws_instance.myec2 (expand)&#45;&gt;[root] data.aws_ami.ubuntu&#45;latest (expand)</title>
<path fill="none" stroke="black" d="M252.77,-143.7C252.77,-135.98 252.77,-126.71 252.77,-118.11"/>
<polygon fill="black" stroke="black" points="256.27,-118.1 252.77,-108.1 249.27,-118.1 256.27,-118.1"/>
</g>
<!-- [root] aws_security_group.allow_tls (expand) -->
<g id="node3" class="node">
<title>[root] aws_security_group.allow_tls (expand)</title>
<polygon fill="none" stroke="black" points="342.27,-324 163.27,-324 163.27,-288 342.27,-288 342.27,-324"/>
<text text-anchor="middle" x="252.77" y="-302.3" font-family="Times,serif" font-size="14.00">aws_security_group.allow_tls</text>
</g>
<!-- [root] aws_security_group.allow_tls (expand)&#45;&gt;[root] aws_eip.ip (expand) -->
<g id="edge3" class="edge">
<title>[root] aws_security_group.allow_tls (expand)&#45;&gt;[root] aws_eip.ip (expand)</title>
<path fill="none" stroke="black" d="M252.77,-287.7C252.77,-279.98 252.77,-270.71 252.77,-262.11"/>
<polygon fill="black" stroke="black" points="256.27,-262.1 252.77,-252.1 249.27,-262.1 256.27,-262.1"/>
</g>
<!-- [root] provider[&quot;registry.terraform.io/hashicorp/aws&quot;] -->
<g id="node5" class="node">
<title>[root] provider[&quot;registry.terraform.io/hashicorp/aws&quot;]</title>
<polygon fill="none" stroke="black" points="252.77,-36 0.23,-18 252.77,0 505.3,-18 252.77,-36"/>
<text text-anchor="middle" x="252.77" y="-14.3" font-family="Times,serif" font-size="14.00">provider[&quot;registry.terraform.io/hashicorp/aws&quot;]</text>
</g>
<!-- [root] data.aws_ami.ubuntu&#45;latest (expand)&#45;&gt;[root] provider[&quot;registry.terraform.io/hashicorp/aws&quot;] -->
<g id="edge4" class="edge">
<title>[root] data.aws_ami.ubuntu&#45;latest (expand)&#45;&gt;[root] provider[&quot;registry.terraform.io/hashicorp/aws&quot;]</title>
<path fill="none" stroke="black" d="M252.77,-71.7C252.77,-63.98 252.77,-54.71 252.77,-46.11"/>
<polygon fill="black" stroke="black" points="256.27,-46.1 252.77,-36.1 249.27,-46.1 256.27,-46.1"/>
</g>
<!-- [root] provider[&quot;registry.terraform.io/hashicorp/aws&quot;] (close) -->
<g id="node6" class="node">
<title>[root] provider[&quot;registry.terraform.io/hashicorp/aws&quot;] (close)</title>
<ellipse fill="none" stroke="black" cx="252.77" cy="-378" rx="227.46" ry="18"/>
<text text-anchor="middle" x="252.77" y="-374.3" font-family="Times,serif" font-size="14.00">[root] provider[&quot;registry.terraform.io/hashicorp/aws&quot;] (close)</text>
</g>
<!-- [root] provider[&quot;registry.terraform.io/hashicorp/aws&quot;] (close)&#45;&gt;[root] aws_security_group.allow_tls (expand) -->
<g id="edge5" class="edge">
<title>[root] provider[&quot;registry.terraform.io/hashicorp/aws&quot;] (close)&#45;&gt;[root] aws_security_group.allow_tls (expand)</title>
<path fill="none" stroke="black" d="M252.77,-359.7C252.77,-351.98 252.77,-342.71 252.77,-334.11"/>
<polygon fill="black" stroke="black" points="256.27,-334.1 252.77,-324.1 249.27,-334.1 256.27,-334.1"/>
</g>
<!-- [root] root -->
<g id="node7" class="node">
<title>[root] root</title>
<ellipse fill="none" stroke="black" cx="252.77" cy="-450" rx="47.39" ry="18"/>
<text text-anchor="middle" x="252.77" y="-446.3" font-family="Times,serif" font-size="14.00">[root] root</text>
</g>
<!-- [root] root&#45;&gt;[root] provider[&quot;registry.terraform.io/hashicorp/aws&quot;] (close) -->
<g id="edge6" class="edge">
<title>[root] root&#45;&gt;[root] provider[&quot;registry.terraform.io/hashicorp/aws&quot;] (close)</title>
<path fill="none" stroke="black" d="M252.77,-431.7C252.77,-423.98 252.77,-414.71 252.77,-406.11"/>
<polygon fill="black" stroke="black" points="256.27,-406.1 252.77,-396.1 249.27,-406.1 256.27,-406.1"/>
</g>
</g>
</svg>
